<svg width="24" height="24" viewBox="0 0 24 24" fill="none" xmlns="http://www.w3.org/2000/svg" data-id="IcBrandApple"><path d="M12.0356 5.84615C12.9552 5.84615 14.1079 5.20534 14.7944 4.35092C15.4161 3.57661 15.8694 2.49523 15.8694 1.41386C15.8694 1.26701 15.8565 1.12015 15.8306 1C14.8074 1.04005 13.5769 1.70757 12.8386 2.60203C12.2558 3.2829 11.7247 4.35092 11.7247 5.44565C11.7247 5.60585 11.7506 5.76605 11.7636 5.81945C11.8283 5.8328 11.9319 5.84615 12.0356 5.84615ZM8.79749 22C10.0539 22 10.6108 21.1322 12.178 21.1322C13.7712 21.1322 14.1209 21.9733 15.5197 21.9733C16.8927 21.9733 17.8123 20.665 18.6801 19.3833C19.6515 17.9148 20.053 16.473 20.0789 16.4062C19.9883 16.3795 17.359 15.2715 17.359 12.1608C17.359 9.46408 19.4313 8.2492 19.5479 8.15575C18.175 6.12651 16.0896 6.07311 15.5197 6.07311C13.9784 6.07311 12.722 7.03433 11.9319 7.03433C11.0771 7.03433 9.95025 6.12651 8.61616 6.12651C6.07751 6.12651 3.5 8.28926 3.5 12.3744C3.5 14.911 4.45847 17.5944 5.63713 19.3299C6.64741 20.7985 7.52817 22 8.79749 22Z" fill="black"></path></svg>