<svg width="30" height="20" viewBox="0 0 24 24" fill="none" xmlns="http://www.w3.org/2000/svg" data-id="IcFlagRectangleGlobal"><rect x="1" y="4" width="22" height="16" rx="1" fill="#0A9AF2"></rect><path d="M17.7193 12.2517C17.7022 15.2885 15.2266 17.7364 12.1898 17.7193M17.7193 12.2517C17.7364 9.215 15.2885 6.73937 12.2517 6.72228M17.7193 12.2517L6.72228 12.1899M12.1898 17.7193C9.1531 17.7022 6.70519 15.2266 6.72228 12.1899M12.1898 17.7193L12.2517 6.72228M12.1898 17.7193C16.1282 15.1256 16.1606 9.36011 12.2517 6.72228M12.1898 17.7193C8.28094 15.0815 8.31339 9.31595 12.2517 6.72228M6.72228 12.1899C6.73937 9.15311 9.21499 6.70519 12.2517 6.72228" stroke="white" stroke-width="1.1" stroke-linecap="round" stroke-linejoin="round"></path></svg>